<svg xmlns="http://www.w3.org/2000/svg" viewBox="0 0 280 48" fill="none">
  <defs>
    <linearGradient id="blueGradient" x1="0%" y1="0%" x2="100%" y2="100%">
      <stop offset="0%" style="stop-color:#3b82f6"/>
      <stop offset="100%" style="stop-color:#1d4ed8"/>
    </linearGradient>
  </defs>
  
  <!-- E Letter with LIDAR scan lines -->
  <g>
    <!-- Main E shape -->
    <path d="M4 4 L4 44 L28 44 L28 38 L12 38 L12 27 L24 27 L24 21 L12 21 L12 10 L28 10 L28 4 Z" fill="url(#blueGradient)"/>
    
    <!-- LIDAR scan lines emanating from E -->
    <line x1="28" y1="7" x2="52" y2="3" stroke="url(#blueGradient)" stroke-width="2" stroke-linecap="round"/>
    <circle cx="54" cy="2.5" r="2" fill="#3b82f6"/>
    
    <line x1="24" y1="16" x2="48" y2="14" stroke="url(#blueGradient)" stroke-width="2" stroke-linecap="round"/>
    <circle cx="50" cy="13.5" r="1.5" fill="#3b82f6"/>
    
    <line x1="24" y1="24" x2="50" y2="24" stroke="url(#blueGradient)" stroke-width="2" stroke-linecap="round"/>
    <circle cx="52" cy="24" r="1.5" fill="#3b82f6"/>
    
    <line x1="24" y1="32" x2="48" y2="34" stroke="url(#blueGradient)" stroke-width="2" stroke-linecap="round"/>
    <circle cx="50" cy="34.5" r="1.5" fill="#3b82f6"/>
    
    <line x1="28" y1="41" x2="52" y2="45" stroke="url(#blueGradient)" stroke-width="2" stroke-linecap="round"/>
    <circle cx="54" cy="45.5" r="2" fill="#3b82f6"/>
  </g>
  
  <!-- Text: eldar.marketing -->
  <text x="68" y="34" font-family="Inter, -apple-system, BlinkMacSystemFont, sans-serif" font-size="22" font-weight="600" fill="#ffffff">
    <tspan fill="#3b82f6">eldar</tspan><tspan fill="#6b7280">.</tspan><tspan fill="#ffffff">marketing</tspan>
  </text>
</svg>