<svg xmlns="http://www.w3.org/2000/svg" viewBox="0 0 340 56" fill="none">
  <defs>
    <linearGradient id="gold22" x1="0%" y1="0%" x2="100%" y2="100%">
      <stop offset="0%" style="stop-color:#fbbf24"/>
      <stop offset="100%" style="stop-color:#b45309"/>
    </linearGradient>
  </defs>
  <g transform="translate(4, 6)">
    <!-- Орбита премиум -->
    <ellipse cx="26" cy="22" rx="24" ry="9" stroke="url(#gold22)" stroke-width="2.5" fill="none" transform="rotate(-22, 26, 22)"/>
    <!-- Нейронные связи -->
    <line x1="26" y1="22" x2="8" y2="8" stroke="#d97706" stroke-width="1.5" opacity="0.6"/>
    <line x1="26" y1="22" x2="44" y2="8" stroke="#fbbf24" stroke-width="1.5" opacity="0.6"/>
    <line x1="26" y1="22" x2="8" y2="36" stroke="#fbbf24" stroke-width="1.5" opacity="0.6"/>
    <line x1="26" y1="22" x2="44" y2="36" stroke="#d97706" stroke-width="1.5" opacity="0.6"/>
    <!-- Узлы -->
    <circle cx="8" cy="8" r="3.5" fill="#d97706"/>
    <circle cx="44" cy="8" r="3.5" fill="#fbbf24"/>
    <circle cx="8" cy="36" r="3.5" fill="#fbbf24"/>
    <circle cx="44" cy="36" r="3.5" fill="#d97706"/>
    <!-- Центральный E -->
    <circle cx="26" cy="22" r="12" fill="#0a0a0a" stroke="url(#gold22)" stroke-width="2"/>
    <path d="M20 15 L20 29 L32 29 L32 26 L24 26 L24 24 L30 24 L30 20 L24 20 L24 18 L32 18 L32 15 Z" fill="url(#gold22)"/>
  </g>
  <text x="66" y="38" font-family="Inter, system-ui, sans-serif" font-size="24" font-weight="700" letter-spacing="1">
    <tspan fill="#fbbf24">eldar</tspan><tspan fill="#d97706">.</tspan><tspan fill="#ffffff">marketing</tspan>
  </text>
</svg>