<svg xmlns="http://www.w3.org/2000/svg" viewBox="0 0 340 56" fill="none">
  <defs>
    <linearGradient id="gold25" x1="0%" y1="0%" x2="100%" y2="0%">
      <stop offset="0%" style="stop-color:#78350f;stop-opacity:0"/>
      <stop offset="100%" style="stop-color:#fbbf24"/>
    </linearGradient>
    <linearGradient id="core25" x1="0%" y1="0%" x2="100%" y2="100%">
      <stop offset="0%" style="stop-color:#fbbf24"/>
      <stop offset="100%" style="stop-color:#b45309"/>
    </linearGradient>
  </defs>
  <g transform="translate(4, 6)">
    <!-- Хвост из частиц премиум -->
    <circle cx="6" cy="26" r="2" fill="#d97706" opacity="0.3"/>
    <circle cx="14" cy="24" r="2.5" fill="#d97706" opacity="0.4"/>
    <circle cx="22" cy="22" r="3" fill="#f59e0b" opacity="0.5"/>
    <circle cx="30" cy="20" r="3.5" fill="#fbbf24" opacity="0.6"/>
    <!-- Основной хвост -->
    <path d="M0 28 Q20 24 36 18" stroke="url(#gold25)" stroke-width="6" fill="none" stroke-linecap="round"/>
    <!-- Ядро E -->
    <circle cx="44" cy="16" r="14" fill="#0a0a0a" stroke="url(#core25)" stroke-width="2.5"/>
    <path d="M36 8 L36 24 L52 24 L52 21 L41 21 L41 18 L50 18 L50 14 L41 14 L41 11 L52 11 L52 8 Z" fill="url(#core25)"/>
    <!-- Свечение -->
    <circle cx="44" cy="16" r="17" stroke="#fbbf24" stroke-width="1" fill="none" opacity="0.2"/>
  </g>
  <text x="72" y="38" font-family="Inter, system-ui, sans-serif" font-size="24" font-weight="700" letter-spacing="1">
    <tspan fill="#fbbf24">eldar</tspan><tspan fill="#d97706">.</tspan><tspan fill="#ffffff">marketing</tspan>
  </text>
</svg>