<svg xmlns="http://www.w3.org/2000/svg" viewBox="0 0 320 48" fill="none">
  <defs>
    <linearGradient id="g26" x1="0%" y1="0%" x2="100%" y2="0%">
      <stop offset="0%" style="stop-color:#0f172a;stop-opacity:0"/>
      <stop offset="100%" style="stop-color:#3b82f6"/>
    </linearGradient>
    <linearGradient id="g26b" x1="0%" y1="0%" x2="100%" y2="100%">
      <stop offset="0%" style="stop-color:#3b82f6"/>
      <stop offset="100%" style="stop-color:#1e40af"/>
    </linearGradient>
  </defs>
  <!-- Комета с нейросетью в хвосте -->
  <g transform="translate(4, 4)">
    <!-- Нейронные узлы в хвосте -->
    <circle cx="4" cy="28" r="2" fill="#1e40af" opacity="0.4"/>
    <circle cx="12" cy="24" r="2.5" fill="#1e40af" opacity="0.5"/>
    <circle cx="20" cy="20" r="3" fill="#1e40af" opacity="0.6"/>
    <!-- Связи между узлами -->
    <line x1="4" y1="28" x2="12" y2="24" stroke="#3b82f6" stroke-width="1" opacity="0.4"/>
    <line x1="12" y1="24" x2="20" y2="20" stroke="#3b82f6" stroke-width="1.5" opacity="0.5"/>
    <line x1="20" y1="20" x2="32" y2="16" stroke="#3b82f6" stroke-width="2" opacity="0.7"/>
    <!-- Ядро кометы -->
    <circle cx="38" cy="14" r="12" fill="url(#g26b)"/>
    <path d="M32 8 L32 20 L44 20 L44 17 L36 17 L36 15 L42 15 L42 12 L36 12 L36 10 L44 10 L44 8 Z" fill="#ffffff"/>
    <!-- Орбита вокруг ядра -->
    <ellipse cx="38" cy="14" rx="14" ry="5" stroke="#3b82f6" stroke-width="1.5" fill="none" transform="rotate(-20, 38, 14)" opacity="0.6"/>
  </g>
  <text x="64" y="34" font-family="Inter, system-ui, sans-serif" font-size="22" font-weight="600">
    <tspan fill="#3b82f6">eldar</tspan><tspan fill="#64748b">.</tspan><tspan fill="#0f172a">marketing</tspan>
  </text>
</svg>