<svg xmlns="http://www.w3.org/2000/svg" viewBox="0 0 340 56" fill="none">
  <defs>
    <linearGradient id="gold27" x1="0%" y1="0%" x2="100%" y2="100%">
      <stop offset="0%" style="stop-color:#fbbf24"/>
      <stop offset="100%" style="stop-color:#b45309"/>
    </linearGradient>
  </defs>
  <g transform="translate(4, 6)">
    <!-- Глобус премиум -->
    <circle cx="24" cy="22" r="20" stroke="url(#gold27)" stroke-width="2.5" fill="none"/>
    <!-- Меридианы как веки -->
    <path d="M4 22 Q24 8 44 22" stroke="url(#gold27)" stroke-width="1.5" fill="none"/>
    <path d="M4 22 Q24 36 44 22" stroke="url(#gold27)" stroke-width="1.5" fill="none"/>
    <!-- Зрачок с E -->
    <circle cx="24" cy="22" r="9" fill="#0a0a0a" stroke="url(#gold27)" stroke-width="2"/>
    <path d="M19 17 L19 27 L29 27 L29 25 L22 25 L22 23 L27 23 L27 21 L22 21 L22 19 L29 19 L29 17 Z" fill="url(#gold27)"/>
    <!-- Сканирующие лучи -->
    <line x1="24" y1="2" x2="24" y2="10" stroke="#d97706" stroke-width="1" opacity="0.4"/>
    <line x1="24" y1="34" x2="24" y2="42" stroke="#d97706" stroke-width="1" opacity="0.4"/>
    <line x1="4" y1="22" x2="12" y2="22" stroke="#d97706" stroke-width="1" opacity="0.4"/>
    <line x1="36" y1="22" x2="44" y2="22" stroke="#d97706" stroke-width="1" opacity="0.4"/>
  </g>
  <text x="64" y="38" font-family="Inter, system-ui, sans-serif" font-size="24" font-weight="700" letter-spacing="1">
    <tspan fill="#fbbf24">eldar</tspan><tspan fill="#d97706">.</tspan><tspan fill="#ffffff">marketing</tspan>
  </text>
</svg>