<svg xmlns="http://www.w3.org/2000/svg" viewBox="0 0 320 48" fill="none">
  <defs>
    <linearGradient id="g29" x1="0%" y1="0%" x2="100%" y2="0%">
      <stop offset="0%" style="stop-color:#0f172a;stop-opacity:0.1"/>
      <stop offset="100%" style="stop-color:#3b82f6"/>
    </linearGradient>
    <linearGradient id="g29b" x1="0%" y1="0%" x2="100%" y2="100%">
      <stop offset="0%" style="stop-color:#3b82f6"/>
      <stop offset="100%" style="stop-color:#1e40af"/>
    </linearGradient>
  </defs>
  <!-- Поток данных как комета -->
  <g transform="translate(4, 4)">
    <!-- Поток данных -->
    <path d="M0 24 C10 24 15 16 25 16 C35 16 40 24 50 24" stroke="url(#g29)" stroke-width="4" fill="none" stroke-linecap="round"/>
    <!-- Нейронные точки на потоке -->
    <circle cx="8" cy="22" r="2" fill="#1e40af" opacity="0.4"/>
    <circle cx="18" cy="16" r="2.5" fill="#1e40af" opacity="0.6"/>
    <circle cx="32" cy="18" r="3" fill="#3b82f6" opacity="0.8"/>
    <!-- Ядро -->
    <circle cx="44" cy="20" r="10" fill="url(#g29b)"/>
    <path d="M39 14 L39 26 L49 26 L49 24 L42 24 L42 21 L47 21 L47 19 L42 19 L42 16 L49 16 L49 14 Z" fill="#ffffff"/>
  </g>
  <text x="64" y="34" font-family="Inter, system-ui, sans-serif" font-size="22" font-weight="600">
    <tspan fill="#3b82f6">eldar</tspan><tspan fill="#64748b">.</tspan><tspan fill="#0f172a">marketing</tspan>
  </text>
</svg>