<svg xmlns="http://www.w3.org/2000/svg" viewBox="0 0 340 56" fill="none">
  <defs>
    <linearGradient id="gold30" x1="0%" y1="0%" x2="100%" y2="100%">
      <stop offset="0%" style="stop-color:#fbbf24"/>
      <stop offset="100%" style="stop-color:#78350f"/>
    </linearGradient>
  </defs>
  <g transform="translate(4, 6)">
    <!-- Внешнее кольцо контроля премиум -->
    <circle cx="26" cy="22" r="20" stroke="url(#gold30)" stroke-width="2.5" fill="none"/>
    <!-- Сетка глобуса -->
    <ellipse cx="26" cy="22" rx="20" ry="7" stroke="#d97706" stroke-width="1" fill="none" opacity="0.4"/>
    <ellipse cx="26" cy="22" rx="7" ry="20" stroke="#d97706" stroke-width="1" fill="none" opacity="0.4"/>
    <!-- Точки влияния -->
    <circle cx="12" cy="12" r="3" fill="#fbbf24"/>
    <circle cx="40" cy="12" r="3" fill="#d97706"/>
    <circle cx="12" cy="32" r="3" fill="#d97706"/>
    <circle cx="40" cy="32" r="3" fill="#fbbf24"/>
    <!-- Линии связи к центру -->
    <line x1="12" y1="12" x2="26" y2="22" stroke="#fbbf24" stroke-width="1" opacity="0.5"/>
    <line x1="40" y1="12" x2="26" y2="22" stroke="#d97706" stroke-width="1" opacity="0.5"/>
    <line x1="12" y1="32" x2="26" y2="22" stroke="#d97706" stroke-width="1" opacity="0.5"/>
    <line x1="40" y1="32" x2="26" y2="22" stroke="#fbbf24" stroke-width="1" opacity="0.5"/>
    <!-- Центр управления E -->
    <circle cx="26" cy="22" r="8" fill="#0a0a0a" stroke="url(#gold30)" stroke-width="2"/>
    <path d="M22 17 L22 27 L30 27 L30 25 L25 25 L25 23 L29 23 L29 21 L25 21 L25 19 L30 19 L30 17 Z" fill="url(#gold30)"/>
    <!-- Орбита кометы -->
    <path d="M46 4 Q52 12 48 20" stroke="#fbbf24" stroke-width="1.5" fill="none" stroke-linecap="round" opacity="0.6"/>
    <circle cx="46" cy="4" r="2.5" fill="#fbbf24"/>
  </g>
  <text x="66" y="38" font-family="Inter, system-ui, sans-serif" font-size="24" font-weight="700" letter-spacing="1">
    <tspan fill="#fbbf24">eldar</tspan><tspan fill="#d97706">.</tspan><tspan fill="#ffffff">marketing</tspan>
  </text>
</svg>