<svg xmlns="http://www.w3.org/2000/svg" viewBox="0 0 340 56" fill="none">
  <defs>
    <linearGradient id="lux35" x1="0%" y1="0%" x2="100%" y2="100%">
      <stop offset="0%" style="stop-color:#fbbf24"/>
      <stop offset="50%" style="stop-color:#a855f7"/>
      <stop offset="100%" style="stop-color:#06b6d4"/>
    </linearGradient>
  </defs>
  <g transform="translate(4, 6)">
    <!-- Нейронные связи премиум -->
    <line x1="26" y1="22" x2="6" y2="6" stroke="#fbbf24" stroke-width="2"/>
    <line x1="26" y1="22" x2="46" y2="6" stroke="#a855f7" stroke-width="2"/>
    <line x1="26" y1="22" x2="6" y2="38" stroke="#06b6d4" stroke-width="2"/>
    <line x1="26" y1="22" x2="46" y2="38" stroke="#fbbf24" stroke-width="2"/>
    <!-- Узлы -->
    <circle cx="6" cy="6" r="4" fill="#fbbf24"/>
    <circle cx="46" cy="6" r="4" fill="#a855f7"/>
    <circle cx="6" cy="38" r="4" fill="#06b6d4"/>
    <circle cx="46" cy="38" r="4" fill="#fbbf24"/>
    <!-- Центр E -->
    <circle cx="26" cy="22" r="14" fill="#0a0a0a" stroke="url(#lux35)" stroke-width="2"/>
    <path d="M19 14 L19 30 L33 30 L33 27 L23 27 L23 24 L31 24 L31 20 L23 20 L23 17 L33 17 L33 14 Z" fill="url(#lux35)"/>
    <!-- Орбита -->
    <ellipse cx="26" cy="22" rx="20" ry="8" stroke="url(#lux35)" stroke-width="1.5" fill="none" transform="rotate(-25, 26, 22)" opacity="0.5"/>
  </g>
  <text x="66" y="38" font-family="Inter, system-ui, sans-serif" font-size="24" font-weight="700" letter-spacing="1">
    <tspan fill="#fbbf24">el</tspan><tspan fill="#a855f7">dar</tspan><tspan fill="#06b6d4">.</tspan><tspan fill="#ffffff">marketing</tspan>
  </text>
</svg>