<svg xmlns="http://www.w3.org/2000/svg" viewBox="0 0 340 56" fill="none">
  <defs>
    <linearGradient id="holo36" x1="0%" y1="0%" x2="100%" y2="100%">
      <stop offset="0%" style="stop-color:#fbbf24"/>
      <stop offset="33%" style="stop-color:#f59e0b"/>
      <stop offset="66%" style="stop-color:#d97706"/>
      <stop offset="100%" style="stop-color:#fbbf24"/>
    </linearGradient>
  </defs>
  <g transform="translate(4, 6)">
    <!-- 3D голограмма E премиум -->
    <path d="M10 8 L10 36 L34 36 L34 31 L17 31 L17 24 L30 24 L30 20 L17 20 L17 13 L34 13 L34 8 Z" fill="none" stroke="url(#holo36)" stroke-width="2.5"/>
    <!-- Слои глубины -->
    <path d="M12 6 L12 34 L36 34 L36 29 L19 29 L19 22 L32 22 L32 18 L19 18 L19 11 L36 11 L36 6 Z" fill="none" stroke="#d97706" stroke-width="1" opacity="0.4"/>
    <path d="M8 10 L8 38 L32 38 L32 33 L15 33 L15 26 L28 26 L28 22 L15 22 L15 15 L32 15 L32 10 Z" fill="none" stroke="#fbbf24" stroke-width="1" opacity="0.4"/>
    <!-- Сканирующие линии -->
    <line x1="0" y1="18" x2="42" y2="18" stroke="#f59e0b" stroke-width="0.5" opacity="0.5"/>
    <line x1="0" y1="26" x2="42" y2="26" stroke="#d97706" stroke-width="0.5" opacity="0.5"/>
    <!-- Орбита -->
    <ellipse cx="22" cy="22" rx="26" ry="9" stroke="url(#holo36)" stroke-width="1.5" fill="none" transform="rotate(-12, 22, 22)"/>
    <circle cx="48" cy="16" r="3" fill="#fbbf24"/>
  </g>
  <text x="64" y="38" font-family="Inter, system-ui, sans-serif" font-size="24" font-weight="700" letter-spacing="1">
    <tspan fill="#fbbf24">el</tspan><tspan fill="#f59e0b">dar</tspan><tspan fill="#d97706">.</tspan><tspan fill="#ffffff">marketing</tspan>
  </text>
</svg>