<svg xmlns="http://www.w3.org/2000/svg" viewBox="0 0 340 56" fill="none">
  <defs>
    <radialGradient id="nova39" cx="50%" cy="50%" r="50%">
      <stop offset="0%" style="stop-color:#ffffff"/>
      <stop offset="30%" style="stop-color:#fbbf24"/>
      <stop offset="60%" style="stop-color:#d97706"/>
      <stop offset="100%" style="stop-color:#78350f;stop-opacity:0"/>
    </radialGradient>
    <linearGradient id="gold39" x1="0%" y1="0%" x2="100%" y2="100%">
      <stop offset="0%" style="stop-color:#fbbf24"/>
      <stop offset="100%" style="stop-color:#b45309"/>
    </linearGradient>
  </defs>
  <g transform="translate(4, 6)">
    <!-- Взрыв/сверхновая премиум -->
    <circle cx="28" cy="22" r="20" fill="url(#nova39)" opacity="0.5"/>
    <!-- Лучи золотые -->
    <line x1="28" y1="22" x2="28" y2="0" stroke="#fbbf24" stroke-width="2.5"/>
    <line x1="28" y1="22" x2="28" y2="44" stroke="#fbbf24" stroke-width="2.5"/>
    <line x1="28" y1="22" x2="6" y2="22" stroke="#d97706" stroke-width="2.5"/>
    <line x1="28" y1="22" x2="50" y2="22" stroke="#d97706" stroke-width="2.5"/>
    <line x1="28" y1="22" x2="12" y2="6" stroke="#b45309" stroke-width="2"/>
    <line x1="28" y1="22" x2="44" y2="6" stroke="#b45309" stroke-width="2"/>
    <line x1="28" y1="22" x2="12" y2="38" stroke="#b45309" stroke-width="2"/>
    <line x1="28" y1="22" x2="44" y2="38" stroke="#b45309" stroke-width="2"/>
    <!-- Ядро E -->
    <circle cx="28" cy="22" r="10" fill="#0a0a0a" stroke="url(#gold39)" stroke-width="2"/>
    <path d="M22 15 L22 29 L34 29 L34 26 L26 26 L26 24 L32 24 L32 20 L26 20 L26 18 L34 18 L34 15 Z" fill="url(#gold39)"/>
  </g>
  <text x="68" y="38" font-family="Inter, system-ui, sans-serif" font-size="24" font-weight="700" letter-spacing="1">
    <tspan fill="#fbbf24">eldar</tspan><tspan fill="#d97706">.</tspan><tspan fill="#ffffff">marketing</tspan>
  </text>
</svg>