<svg xmlns="http://www.w3.org/2000/svg" viewBox="0 0 360 56" fill="none">
  <defs>
    <linearGradient id="gold41" x1="0%" y1="0%" x2="100%" y2="100%">
      <stop offset="0%" style="stop-color:#fbbf24"/>
      <stop offset="100%" style="stop-color:#78350f"/>
    </linearGradient>
  </defs>
  <g transform="translate(4, 4)">
    <!-- Мозг/голова из данных -->
    <path d="M26 4 C12 4 4 14 4 24 C4 34 12 44 26 44 C32 44 36 42 40 38" stroke="url(#gold41)" stroke-width="2.5" fill="none" stroke-linecap="round"/>
    <!-- Нейронные связи внутри -->
    <circle cx="16" cy="18" r="3" fill="#fbbf24"/>
    <circle cx="28" cy="14" r="3" fill="#d97706"/>
    <circle cx="20" cy="28" r="3" fill="#d97706"/>
    <circle cx="32" cy="26" r="3" fill="#fbbf24"/>
    <circle cx="24" cy="38" r="3" fill="#fbbf24"/>
    <line x1="16" y1="18" x2="28" y2="14" stroke="#fbbf24" stroke-width="1.5" opacity="0.6"/>
    <line x1="16" y1="18" x2="20" y2="28" stroke="#d97706" stroke-width="1.5" opacity="0.6"/>
    <line x1="28" y1="14" x2="32" y2="26" stroke="#fbbf24" stroke-width="1.5" opacity="0.6"/>
    <line x1="20" y1="28" x2="32" y2="26" stroke="#d97706" stroke-width="1.5" opacity="0.6"/>
    <line x1="20" y1="28" x2="24" y2="38" stroke="#fbbf24" stroke-width="1.5" opacity="0.6"/>
    <!-- Исходящие сигналы влияния -->
    <path d="M40 20 Q48 16 56 18" stroke="#fbbf24" stroke-width="2" fill="none" stroke-linecap="round"/>
    <path d="M42 28 Q50 28 58 26" stroke="#d97706" stroke-width="2" fill="none" stroke-linecap="round"/>
    <path d="M40 36 Q48 38 54 34" stroke="#fbbf24" stroke-width="2" fill="none" stroke-linecap="round"/>
    <circle cx="58" cy="18" r="2" fill="#fbbf24"/>
    <circle cx="60" cy="26" r="2" fill="#d97706"/>
    <circle cx="56" cy="34" r="2" fill="#fbbf24"/>
  </g>
  <text x="76" y="38" font-family="Inter, system-ui, sans-serif" font-size="24" font-weight="700" letter-spacing="1">
    <tspan fill="#fbbf24">eldar</tspan><tspan fill="#d97706">.</tspan><tspan fill="#ffffff">marketing</tspan>
  </text>
</svg>