<svg xmlns="http://www.w3.org/2000/svg" viewBox="0 0 360 56" fill="none">
  <defs>
    <linearGradient id="gold44" x1="0%" y1="0%" x2="100%" y2="0%">
      <stop offset="0%" style="stop-color:#78350f"/>
      <stop offset="100%" style="stop-color:#fbbf24"/>
    </linearGradient>
  </defs>
  <g transform="translate(4, 4)">
    <!-- Потоки данных сходящиеся к E -->
    <path d="M0 8 Q20 12 36 24" stroke="#d97706" stroke-width="2" fill="none" stroke-linecap="round" opacity="0.6"/>
    <path d="M0 24 Q16 24 36 24" stroke="#fbbf24" stroke-width="2.5" fill="none" stroke-linecap="round"/>
    <path d="M0 40 Q20 36 36 24" stroke="#d97706" stroke-width="2" fill="none" stroke-linecap="round" opacity="0.6"/>
    <!-- Точки данных на потоках -->
    <circle cx="8" cy="10" r="2" fill="#d97706" opacity="0.5"/>
    <circle cx="16" cy="12" r="2.5" fill="#d97706" opacity="0.6"/>
    <circle cx="8" cy="24" r="2" fill="#fbbf24" opacity="0.7"/>
    <circle cx="20" cy="24" r="3" fill="#fbbf24" opacity="0.8"/>
    <circle cx="8" cy="38" r="2" fill="#d97706" opacity="0.5"/>
    <circle cx="16" cy="36" r="2.5" fill="#d97706" opacity="0.6"/>
    <!-- E как центр обработки -->
    <circle cx="44" cy="24" r="14" fill="#0a0a0a" stroke="url(#gold44)" stroke-width="2.5"/>
    <path d="M37 16 L37 32 L51 32 L51 28 L42 28 L42 26 L49 26 L49 22 L42 22 L42 20 L51 20 L51 16 Z" fill="url(#gold44)"/>
    <!-- Исходящий сигнал -->
    <path d="M58 24 L68 24" stroke="#fbbf24" stroke-width="3" stroke-linecap="round"/>
    <circle cx="72" cy="24" r="3" fill="#fbbf24"/>
  </g>
  <text x="88" y="38" font-family="Inter, system-ui, sans-serif" font-size="24" font-weight="700" letter-spacing="1">
    <tspan fill="#fbbf24">eldar</tspan><tspan fill="#d97706">.</tspan><tspan fill="#ffffff">marketing</tspan>
  </text>
</svg>