<svg xmlns="http://www.w3.org/2000/svg" viewBox="0 0 360 56" fill="none">
  <defs>
    <linearGradient id="gold45" x1="0%" y1="0%" x2="100%" y2="100%">
      <stop offset="0%" style="stop-color:#fbbf24"/>
      <stop offset="100%" style="stop-color:#78350f"/>
    </linearGradient>
  </defs>
  <g transform="translate(4, 4)">
    <!-- Профиль головы -->
    <path d="M20 4 C8 8 4 18 4 28 C4 38 10 44 20 46 L20 40 C14 38 10 32 10 26 C10 18 16 10 24 8" stroke="url(#gold45)" stroke-width="2.5" fill="none" stroke-linecap="round"/>
    <!-- Граф психометрии внутри -->
    <polygon points="24,12 36,18 38,32 28,40 16,34 14,20" stroke="#fbbf24" stroke-width="1.5" fill="none" opacity="0.6"/>
    <polygon points="24,16 32,20 34,30 26,36 18,32 16,22" stroke="#d97706" stroke-width="1.5" fill="none" opacity="0.8"/>
    <!-- Точки данных -->
    <circle cx="24" cy="12" r="2.5" fill="#fbbf24"/>
    <circle cx="36" cy="18" r="2.5" fill="#d97706"/>
    <circle cx="38" cy="32" r="2.5" fill="#fbbf24"/>
    <circle cx="28" cy="40" r="2.5" fill="#d97706"/>
    <circle cx="16" cy="34" r="2.5" fill="#fbbf24"/>
    <circle cx="14" cy="20" r="2.5" fill="#d97706"/>
    <!-- Центр -->
    <circle cx="26" cy="26" r="4" fill="url(#gold45)"/>
    <!-- Исходящие волны влияния -->
    <path d="M42 20 Q50 18 56 22" stroke="#fbbf24" stroke-width="1.5" fill="none" opacity="0.5"/>
    <path d="M44 28 Q52 28 58 26" stroke="#d97706" stroke-width="1.5" fill="none" opacity="0.5"/>
  </g>
  <text x="72" y="38" font-family="Inter, system-ui, sans-serif" font-size="24" font-weight="700" letter-spacing="1">
    <tspan fill="#fbbf24">eldar</tspan><tspan fill="#d97706">.</tspan><tspan fill="#ffffff">marketing</tspan>
  </text>
</svg>