<svg xmlns="http://www.w3.org/2000/svg" viewBox="0 0 360 56" fill="none">
  <defs>
    <linearGradient id="gold47" x1="0%" y1="0%" x2="100%" y2="100%">
      <stop offset="0%" style="stop-color:#fbbf24"/>
      <stop offset="100%" style="stop-color:#78350f"/>
    </linearGradient>
  </defs>
  <g transform="translate(4, 4)">
    <!-- Прицел высокоточный -->
    <circle cx="26" cy="24" r="20" stroke="url(#gold47)" stroke-width="2" fill="none"/>
    <circle cx="26" cy="24" r="12" stroke="#d97706" stroke-width="1.5" fill="none"/>
    <!-- Перекрестие с засечками -->
    <line x1="26" y1="2" x2="26" y2="10" stroke="url(#gold47)" stroke-width="2.5"/>
    <line x1="26" y1="38" x2="26" y2="46" stroke="url(#gold47)" stroke-width="2.5"/>
    <line x1="4" y1="24" x2="12" y2="24" stroke="url(#gold47)" stroke-width="2.5"/>
    <line x1="40" y1="24" x2="48" y2="24" stroke="url(#gold47)" stroke-width="2.5"/>
    <!-- Засечки на кольце -->
    <line x1="26" y1="4" x2="26" y2="8" stroke="#fbbf24" stroke-width="1"/>
    <line x1="26" y1="40" x2="26" y2="44" stroke="#fbbf24" stroke-width="1"/>
    <line x1="6" y1="24" x2="10" y2="24" stroke="#fbbf24" stroke-width="1"/>
    <line x1="42" y1="24" x2="46" y2="24" stroke="#fbbf24" stroke-width="1"/>
    <!-- E в центре -->
    <circle cx="26" cy="24" r="6" fill="#0a0a0a" stroke="url(#gold47)" stroke-width="1.5"/>
    <path d="M23 21 L23 27 L29 27 L29 26 L24.5 26 L24.5 25 L28 25 L28 23 L24.5 23 L24.5 22 L29 22 L29 21 Z" fill="url(#gold47)"/>
    <!-- Данные вокруг -->
    <text x="10" y="12" font-family="monospace" font-size="6" fill="#d97706" opacity="0.6">87%</text>
    <text x="36" y="12" font-family="monospace" font-size="6" fill="#fbbf24" opacity="0.6">CTR</text>
    <text x="8" y="42" font-family="monospace" font-size="6" fill="#fbbf24" opacity="0.6">ROI</text>
    <text x="36" y="42" font-family="monospace" font-size="6" fill="#d97706" opacity="0.6">2.4x</text>
  </g>
  <text x="68" y="38" font-family="Inter, system-ui, sans-serif" font-size="24" font-weight="700" letter-spacing="1">
    <tspan fill="#fbbf24">eldar</tspan><tspan fill="#d97706">.</tspan><tspan fill="#ffffff">marketing</tspan>
  </text>
</svg>