<svg xmlns="http://www.w3.org/2000/svg" viewBox="0 0 360 56" fill="none">
  <defs>
    <linearGradient id="gold48" x1="0%" y1="0%" x2="100%" y2="100%">
      <stop offset="0%" style="stop-color:#fbbf24"/>
      <stop offset="100%" style="stop-color:#78350f"/>
    </linearGradient>
  </defs>
  <g transform="translate(4, 4)">
    <!-- Глобус с сеткой -->
    <circle cx="26" cy="24" r="22" stroke="url(#gold48)" stroke-width="2" fill="none"/>
    <ellipse cx="26" cy="24" rx="22" ry="8" stroke="#d97706" stroke-width="1" fill="none" opacity="0.4"/>
    <ellipse cx="26" cy="24" rx="8" ry="22" stroke="#d97706" stroke-width="1" fill="none" opacity="0.4"/>
    <!-- Информационные потоки -->
    <path d="M8 12 Q18 18 26 24" stroke="#fbbf24" stroke-width="2" fill="none" stroke-linecap="round"/>
    <path d="M44 12 Q34 18 26 24" stroke="#d97706" stroke-width="2" fill="none" stroke-linecap="round"/>
    <path d="M8 36 Q18 30 26 24" stroke="#d97706" stroke-width="2" fill="none" stroke-linecap="round"/>
    <path d="M44 36 Q34 30 26 24" stroke="#fbbf24" stroke-width="2" fill="none" stroke-linecap="round"/>
    <!-- Центр контроля нарратива -->
    <circle cx="26" cy="24" r="8" fill="#0a0a0a" stroke="url(#gold48)" stroke-width="2"/>
    <path d="M22 19 L22 29 L30 29 L30 27 L25 27 L25 25 L29 25 L29 23 L25 23 L25 21 L30 21 L30 19 Z" fill="url(#gold48)"/>
    <!-- Точки источников -->
    <circle cx="6" cy="10" r="3" fill="#fbbf24"/>
    <circle cx="46" cy="10" r="3" fill="#d97706"/>
    <circle cx="6" cy="38" r="3" fill="#d97706"/>
    <circle cx="46" cy="38" r="3" fill="#fbbf24"/>
  </g>
  <text x="68" y="38" font-family="Inter, system-ui, sans-serif" font-size="24" font-weight="700" letter-spacing="1">
    <tspan fill="#fbbf24">eldar</tspan><tspan fill="#d97706">.</tspan><tspan fill="#ffffff">marketing</tspan>
  </text>
</svg>