<svg xmlns="http://www.w3.org/2000/svg" viewBox="0 0 360 56" fill="none">
  <defs>
    <linearGradient id="gold53" x1="0%" y1="0%" x2="100%" y2="100%">
      <stop offset="0%" style="stop-color:#fbbf24"/>
      <stop offset="100%" style="stop-color:#78350f"/>
    </linearGradient>
  </defs>
  <g transform="translate(4, 4)">
    <!-- Профиль головы -->
    <path d="M30 4 C14 4 6 14 6 26 C6 38 14 46 30 46" stroke="url(#gold53)" stroke-width="3" fill="none" stroke-linecap="round"/>
    <!-- Нейронная сеть внутри -->
    <circle cx="18" cy="18" r="4" fill="#fbbf24"/>
    <circle cx="32" cy="16" r="4" fill="#d97706"/>
    <circle cx="22" cy="32" r="4" fill="#d97706"/>
    <circle cx="36" cy="30" r="4" fill="#fbbf24"/>
    <line x1="18" y1="18" x2="32" y2="16" stroke="#fbbf24" stroke-width="1.5" opacity="0.6"/>
    <line x1="18" y1="18" x2="22" y2="32" stroke="#d97706" stroke-width="1.5" opacity="0.6"/>
    <line x1="32" y1="16" x2="36" y2="30" stroke="#fbbf24" stroke-width="1.5" opacity="0.6"/>
    <line x1="22" y1="32" x2="36" y2="30" stroke="#d97706" stroke-width="1.5" opacity="0.6"/>
    <!-- Исходящие сигналы -->
    <path d="M40 16 L52 12" stroke="#fbbf24" stroke-width="2" stroke-linecap="round"/>
    <path d="M42 24 L54 24" stroke="#d97706" stroke-width="2" stroke-linecap="round"/>
    <path d="M40 32 L52 36" stroke="#fbbf24" stroke-width="2" stroke-linecap="round"/>
    <circle cx="54" cy="12" r="3" fill="#fbbf24"/>
    <circle cx="56" cy="24" r="3" fill="#d97706"/>
    <circle cx="54" cy="36" r="3" fill="#fbbf24"/>
  </g>
  <text x="76" y="38" font-family="Inter, system-ui, sans-serif" font-size="24" font-weight="700" letter-spacing="1">
    <tspan fill="#fbbf24">eldar</tspan><tspan fill="#d97706">.</tspan><tspan fill="#ffffff">marketing</tspan>
  </text>
</svg>